<svg width="309" height="560" viewBox="0 0 309 560" fill="none" xmlns="http://www.w3.org/2000/svg">
<rect x="107" width="202" height="18" fill="white"/>
<rect x="107.5" y="0.5" width="201" height="17" stroke="#3887EA" stroke-opacity="0.5"/>
<rect x="106.984" y="19.4941" width="202" height="18" fill="white"/>
<rect x="107.484" y="19.9941" width="201" height="17" stroke="#3887EA" stroke-opacity="0.5"/>
<rect x="106.968" y="38.9885" width="202" height="18" fill="white"/>
<rect x="107.468" y="39.4885" width="201" height="17" stroke="#3887EA" stroke-opacity="0.5"/>
<rect x="106.952" y="58.4827" width="202" height="17" fill="white"/>
<rect x="107.452" y="58.9827" width="201" height="16" stroke="#3887EA" stroke-opacity="0.5"/>
<rect x="106.937" y="76.9768" width="202" height="18" fill="white"/>
<rect x="107.437" y="77.4768" width="201" height="17" stroke="#3887EA" stroke-opacity="0.5"/>
<rect x="106.92" y="96.4712" width="202" height="18" fill="white"/>
<rect x="107.42" y="96.9712" width="201" height="17" stroke="#3887EA" stroke-opacity="0.5"/>
<rect x="106.905" y="115.965" width="202" height="18" fill="white"/>
<rect x="107.405" y="116.465" width="201" height="17" stroke="#3887EA" stroke-opacity="0.5"/>
<rect x="106.889" y="135.46" width="202" height="18" fill="white"/>
<rect x="107.389" y="135.96" width="201" height="17" stroke="#3887EA" stroke-opacity="0.5"/>
<rect x="106.873" y="154.954" width="202" height="17" fill="white"/>
<rect x="107.373" y="155.454" width="201" height="16" stroke="#3887EA" stroke-opacity="0.5"/>
<rect x="106.857" y="173.448" width="202" height="18" fill="white"/>
<rect x="107.357" y="173.948" width="201" height="17" stroke="#3887EA" stroke-opacity="0.5"/>
<rect x="106.841" y="192.942" width="202" height="18" fill="white"/>
<rect x="107.341" y="193.442" width="201" height="17" stroke="#3887EA" stroke-opacity="0.5"/>
<rect x="0.825684" y="212.696" width="308" height="18" fill="white"/>
<rect x="1.32568" y="213.196" width="307" height="17" stroke="#3887EA" stroke-opacity="0.5"/>
<rect x="0.810547" y="232.449" width="308" height="18" fill="white"/>
<rect x="1.31055" y="232.949" width="307" height="17" stroke="#3887EA" stroke-opacity="0.5"/>
<rect x="0.794922" y="252.203" width="308" height="17" fill="white"/>
<rect x="1.29492" y="252.703" width="307" height="16" stroke="#3887EA" stroke-opacity="0.5"/>
<rect x="0.779785" y="270.957" width="308" height="18" fill="white"/>
<rect x="1.27979" y="271.457" width="307" height="17" stroke="#3887EA" stroke-opacity="0.5"/>
<rect x="0.76416" y="290.71" width="308" height="18" fill="white"/>
<rect x="1.26416" y="291.21" width="307" height="17" stroke="#3887EA" stroke-opacity="0.5"/>
<rect x="0.749023" y="310.463" width="308" height="18" fill="white"/>
<rect x="1.24902" y="310.963" width="307" height="17" stroke="#3887EA" stroke-opacity="0.5"/>
<rect x="0.733887" y="330.217" width="308" height="18" fill="white"/>
<rect x="1.23389" y="330.717" width="307" height="17" stroke="#3887EA" stroke-opacity="0.5"/>
<rect x="0.71875" y="349.97" width="308" height="17" fill="white"/>
<rect x="1.21875" y="350.47" width="307" height="16" stroke="#3887EA" stroke-opacity="0.5"/>
<rect x="0.703125" y="368.724" width="308" height="18" fill="white"/>
<rect x="1.20312" y="369.224" width="307" height="17" stroke="#3887EA" stroke-opacity="0.5"/>
<rect x="0.687988" y="388.478" width="308" height="18" fill="white"/>
<rect x="1.18799" y="388.978" width="307" height="17" stroke="#3887EA" stroke-opacity="0.5"/>
<rect x="0.672852" y="408.231" width="308" height="18" fill="white"/>
<rect x="1.17285" y="408.731" width="307" height="17" stroke="#3887EA" stroke-opacity="0.5"/>
</svg>
