<svg width="338" height="299" viewBox="0 0 338 299" fill="none" xmlns="http://www.w3.org/2000/svg">
<rect x="106" width="202" height="18" fill="white"/>
<rect x="106.5" y="0.5" width="201" height="17" stroke="#3887EA" stroke-opacity="0.5"/>
<rect x="106" y="20" width="202" height="18" fill="white"/>
<rect x="106.5" y="20.5" width="201" height="17" stroke="#3887EA" stroke-opacity="0.5"/>
<rect x="106" y="40" width="202" height="18" fill="white"/>
<rect x="106.5" y="40.5" width="201" height="17" stroke="#3887EA" stroke-opacity="0.5"/>
<rect x="106" y="60" width="202" height="17" fill="white"/>
<rect x="106.5" y="60.5" width="201" height="16" stroke="#3887EA" stroke-opacity="0.5"/>
<rect x="106" y="79" width="202" height="18" fill="white"/>
<rect x="106.5" y="79.5" width="201" height="17" stroke="#3887EA" stroke-opacity="0.5"/>
<rect x="106" y="99" width="202" height="18" fill="white"/>
<rect x="106.5" y="99.5" width="201" height="17" stroke="#3887EA" stroke-opacity="0.5"/>
<rect x="106" y="119" width="202" height="18" fill="white"/>
<rect x="106.5" y="119.5" width="201" height="17" stroke="#3887EA" stroke-opacity="0.5"/>
<rect x="106" y="139" width="202" height="18" fill="white"/>
<rect x="106.5" y="139.5" width="201" height="17" stroke="#3887EA" stroke-opacity="0.5"/>
<rect x="106" y="159" width="202" height="17" fill="white"/>
<rect x="106.5" y="159.5" width="201" height="16" stroke="#3887EA" stroke-opacity="0.5"/>
<rect x="106" y="178" width="202" height="18" fill="white"/>
<rect x="106.5" y="178.5" width="201" height="17" stroke="#3887EA" stroke-opacity="0.5"/>
<rect x="106" y="198" width="202" height="18" fill="white"/>
<rect x="106.5" y="198.5" width="201" height="17" stroke="#3887EA" stroke-opacity="0.5"/>
</svg>
