<svg width="309" height="560" viewBox="0 0 309 560" fill="none" xmlns="http://www.w3.org/2000/svg">
<rect x="203.233" y="416.61" width="202" height="18" transform="rotate(-180 203.233 416.61)" fill="white"/>
<rect x="202.733" y="416.11" width="201" height="17" transform="rotate(-180 202.733 416.11)" stroke="#3887EA" stroke-opacity="0.5"/>
<rect x="203.171" y="397.872" width="202" height="18" transform="rotate(-180 203.171 397.872)" fill="white"/>
<rect x="202.671" y="397.372" width="201" height="17" transform="rotate(-180 202.671 397.372)" stroke="#3887EA" stroke-opacity="0.5"/>
<rect x="203.108" y="379.134" width="202" height="18" transform="rotate(-180 203.108 379.134)" fill="white"/>
<rect x="202.608" y="378.634" width="201" height="17" transform="rotate(-180 202.608 378.634)" stroke="#3887EA" stroke-opacity="0.5"/>
<rect x="203.046" y="360.396" width="202" height="17" transform="rotate(-180 203.046 360.396)" fill="white"/>
<rect x="202.546" y="359.896" width="201" height="16" transform="rotate(-180 202.546 359.896)" stroke="#3887EA" stroke-opacity="0.5"/>
<rect x="202.983" y="342.658" width="202" height="18" transform="rotate(-180 202.983 342.658)" fill="white"/>
<rect x="202.483" y="342.158" width="201" height="17" transform="rotate(-180 202.483 342.158)" stroke="#3887EA" stroke-opacity="0.5"/>
<rect x="202.921" y="323.921" width="202" height="18" transform="rotate(-180 202.921 323.921)" fill="white"/>
<rect x="202.421" y="323.421" width="201" height="17" transform="rotate(-180 202.421 323.421)" stroke="#3887EA" stroke-opacity="0.5"/>
<rect x="202.859" y="305.183" width="202" height="18" transform="rotate(-180 202.859 305.183)" fill="white"/>
<rect x="202.359" y="304.683" width="201" height="17" transform="rotate(-180 202.359 304.683)" stroke="#3887EA" stroke-opacity="0.5"/>
<rect x="202.796" y="286.445" width="202" height="18" transform="rotate(-180 202.796 286.445)" fill="white"/>
<rect x="202.296" y="285.945" width="201" height="17" transform="rotate(-180 202.296 285.945)" stroke="#3887EA" stroke-opacity="0.5"/>
<rect x="202.734" y="267.707" width="202" height="17" transform="rotate(-180 202.734 267.707)" fill="white"/>
<rect x="202.234" y="267.207" width="201" height="16" transform="rotate(-180 202.234 267.207)" stroke="#3887EA" stroke-opacity="0.5"/>
<rect x="202.671" y="249.969" width="202" height="18" transform="rotate(-180 202.671 249.969)" fill="white"/>
<rect x="202.171" y="249.469" width="201" height="17" transform="rotate(-180 202.171 249.469)" stroke="#3887EA" stroke-opacity="0.5"/>
<rect x="202.609" y="231.232" width="202" height="18" transform="rotate(-180 202.609 231.232)" fill="white"/>
<rect x="202.109" y="230.732" width="201" height="17" transform="rotate(-180 202.109 230.732)" stroke="#3887EA" stroke-opacity="0.5"/>
<rect x="308.546" y="212.494" width="308" height="18" transform="rotate(-180 308.546 212.494)" fill="white"/>
<rect x="308.046" y="211.994" width="307" height="17" transform="rotate(-180 308.046 211.994)" stroke="#3887EA" stroke-opacity="0.5"/>
<rect x="308.492" y="192.844" width="308" height="18" transform="rotate(-180 308.492 192.844)" fill="white"/>
<rect x="307.992" y="192.344" width="307" height="17" transform="rotate(-180 307.992 192.344)" stroke="#3887EA" stroke-opacity="0.5"/>
<rect x="308.437" y="173.195" width="308" height="17" transform="rotate(-180 308.437 173.195)" fill="white"/>
<rect x="307.937" y="172.695" width="307" height="16" transform="rotate(-180 307.937 172.695)" stroke="#3887EA" stroke-opacity="0.5"/>
<rect x="308.382" y="154.546" width="308" height="18" transform="rotate(-180 308.382 154.546)" fill="white"/>
<rect x="307.882" y="154.046" width="307" height="17" transform="rotate(-180 307.882 154.046)" stroke="#3887EA" stroke-opacity="0.5"/>
<rect x="308.328" y="134.896" width="308" height="18" transform="rotate(-180 308.328 134.896)" fill="white"/>
<rect x="307.828" y="134.396" width="307" height="17" transform="rotate(-180 307.828 134.396)" stroke="#3887EA" stroke-opacity="0.5"/>
<rect x="308.273" y="115.247" width="308" height="18" transform="rotate(-180 308.273 115.247)" fill="white"/>
<rect x="307.773" y="114.747" width="307" height="17" transform="rotate(-180 307.773 114.747)" stroke="#3887EA" stroke-opacity="0.5"/>
<rect x="308.219" y="95.5974" width="308" height="18" transform="rotate(-180 308.219 95.5974)" fill="white"/>
<rect x="307.719" y="95.0974" width="307" height="17" transform="rotate(-180 307.719 95.0974)" stroke="#3887EA" stroke-opacity="0.5"/>
<rect x="308.164" y="75.9482" width="308" height="17" transform="rotate(-180 308.164 75.9482)" fill="white"/>
<rect x="307.664" y="75.4482" width="307" height="16" transform="rotate(-180 307.664 75.4482)" stroke="#3887EA" stroke-opacity="0.5"/>
<rect x="308.109" y="57.2988" width="308" height="18" transform="rotate(-180 308.109 57.2988)" fill="white"/>
<rect x="307.609" y="56.7988" width="307" height="17" transform="rotate(-180 307.609 56.7988)" stroke="#3887EA" stroke-opacity="0.5"/>
<rect x="308.055" y="37.6494" width="308" height="18" transform="rotate(-180 308.055 37.6494)" fill="white"/>
<rect x="307.555" y="37.1494" width="307" height="17" transform="rotate(-180 307.555 37.1494)" stroke="#3887EA" stroke-opacity="0.5"/>
<rect x="308" y="18" width="308" height="18" transform="rotate(-180 308 18)" fill="white"/>
<rect x="307.5" y="17.5" width="307" height="17" transform="rotate(-180 307.5 17.5)" stroke="#3887EA" stroke-opacity="0.5"/>
</svg>
