<svg width="310" height="560" viewBox="0 0 310 560" fill="none" xmlns="http://www.w3.org/2000/svg">
<rect x="107.22" y="73.8635" width="202" height="18" fill="white"/>
<rect x="107.72" y="74.3635" width="201" height="17" stroke="#3887EA" stroke-opacity="0.5"/>
<rect x="107.201" y="93.4663" width="202" height="18" fill="white"/>
<rect x="107.701" y="93.9663" width="201" height="17" stroke="#3887EA" stroke-opacity="0.5"/>
<rect x="107.182" y="113.069" width="202" height="18" fill="white"/>
<rect x="107.682" y="113.569" width="201" height="17" stroke="#3887EA" stroke-opacity="0.5"/>
<rect x="107.163" y="132.672" width="202" height="17" fill="white"/>
<rect x="107.663" y="133.172" width="201" height="16" stroke="#3887EA" stroke-opacity="0.5"/>
<rect x="107.144" y="151.274" width="202" height="18" fill="white"/>
<rect x="107.644" y="151.774" width="201" height="17" stroke="#3887EA" stroke-opacity="0.5"/>
<rect x="107.125" y="170.877" width="202" height="18" fill="white"/>
<rect x="107.625" y="171.377" width="201" height="17" stroke="#3887EA" stroke-opacity="0.5"/>
<rect x="107.106" y="190.48" width="202" height="18" fill="white"/>
<rect x="107.606" y="190.98" width="201" height="17" stroke="#3887EA" stroke-opacity="0.5"/>
<rect x="107.087" y="210.082" width="202" height="18" fill="white"/>
<rect x="107.587" y="210.582" width="201" height="17" stroke="#3887EA" stroke-opacity="0.5"/>
<rect x="107.068" y="229.685" width="202" height="17" fill="white"/>
<rect x="107.568" y="230.185" width="201" height="16" stroke="#3887EA" stroke-opacity="0.5"/>
<rect x="107.048" y="248.288" width="202" height="18" fill="white"/>
<rect x="107.548" y="248.788" width="201" height="17" stroke="#3887EA" stroke-opacity="0.5"/>
<rect x="107.029" y="267.89" width="202" height="18" fill="white"/>
<rect x="107.529" y="268.39" width="201" height="17" stroke="#3887EA" stroke-opacity="0.5"/>
<rect x="1.01123" y="287.809" width="308" height="18" fill="white"/>
<rect x="1.51123" y="288.309" width="307" height="17" stroke="#3887EA" stroke-opacity="0.5"/>
<rect x="0.993164" y="307.729" width="308" height="18" fill="white"/>
<rect x="1.49316" y="308.229" width="307" height="17" stroke="#3887EA" stroke-opacity="0.5"/>
<rect x="0.975098" y="327.647" width="308" height="17" fill="white"/>
<rect x="1.4751" y="328.147" width="307" height="16" stroke="#3887EA" stroke-opacity="0.5"/>
<rect x="0.957031" y="346.567" width="308" height="18" fill="white"/>
<rect x="1.45703" y="347.067" width="307" height="17" stroke="#3887EA" stroke-opacity="0.5"/>
<rect x="0.938965" y="366.486" width="308" height="18" fill="white"/>
<rect x="1.43896" y="366.986" width="307" height="17" stroke="#3887EA" stroke-opacity="0.5"/>
<rect x="0.920898" y="386.405" width="308" height="18" fill="white"/>
<rect x="1.4209" y="386.905" width="307" height="17" stroke="#3887EA" stroke-opacity="0.5"/>
<rect x="0.902344" y="406.324" width="308" height="18" fill="white"/>
<rect x="1.40234" y="406.824" width="307" height="17" stroke="#3887EA" stroke-opacity="0.5"/>
<rect x="0.884277" y="426.243" width="308" height="17" fill="white"/>
<rect x="1.38428" y="426.743" width="307" height="16" stroke="#3887EA" stroke-opacity="0.5"/>
<rect x="0.866211" y="445.162" width="308" height="18" fill="white"/>
<rect x="1.36621" y="445.662" width="307" height="17" stroke="#3887EA" stroke-opacity="0.5"/>
<rect x="0.848145" y="465.081" width="308" height="18" fill="white"/>
<rect x="1.34814" y="465.581" width="307" height="17" stroke="#3887EA" stroke-opacity="0.5"/>
<rect x="0.830078" y="485" width="308" height="18" fill="white"/>
<rect x="1.33008" y="485.5" width="307" height="17" stroke="#3887EA" stroke-opacity="0.5"/>
</svg>
