<svg width="26" height="24" viewBox="0 0 26 24" fill="none" xmlns="http://www.w3.org/2000/svg">
<mask id="mask0_31_79" style="mask-type:alpha" maskUnits="userSpaceOnUse" x="0" y="0" width="26" height="24">
<rect x="0.901855" width="24.4706" height="24" fill="#D9D9D9"/>
</mask>
<g mask="url(#mask0_31_79)">
<path d="M12.1174 11H14.1567V4C14.1567 3.71667 14.0591 3.479 13.864 3.287C13.6683 3.09567 13.4259 3 13.137 3C12.8482 3 12.6062 3.09567 12.4111 3.287C12.2153 3.479 12.1174 3.71667 12.1174 4V11ZM5.99979 15H20.2743V13H5.99979V15ZM4.52136 21H7.0194V19C7.0194 18.7167 7.11694 18.4793 7.31203 18.288C7.50779 18.096 7.75012 18 8.03901 18C8.3279 18 8.57022 18.096 8.76599 18.288C8.96107 18.4793 9.05861 18.7167 9.05861 19V21H12.1174V19C12.1174 18.7167 12.2153 18.4793 12.4111 18.288C12.6062 18.096 12.8482 18 13.137 18C13.4259 18 13.6683 18.096 13.864 18.288C14.0591 18.4793 14.1567 18.7167 14.1567 19V21H17.2155V19C17.2155 18.7167 17.3134 18.4793 17.5091 18.288C17.7042 18.096 17.9462 18 18.2351 18C18.524 18 18.766 18.096 18.961 18.288C19.1568 18.4793 19.2547 18.7167 19.2547 19V21H21.7527L20.7331 17H5.54097L4.52136 21ZM21.7527 23H4.52136C3.85861 23 3.32332 22.7417 2.91548 22.225C2.50763 21.7083 2.38868 21.1333 2.55861 20.5L3.96057 15V13C3.96057 12.45 4.16008 11.979 4.55908 11.587C4.95877 11.1957 5.43901 11 5.99979 11H10.0782V4C10.0782 3.16667 10.3756 2.45833 10.9704 1.875C11.5652 1.29167 12.2874 1 13.137 1C13.9867 1 14.7089 1.29167 15.3037 1.875C15.8985 2.45833 16.1959 3.16667 16.1959 4V11H20.2743C20.8351 11 21.3153 11.1957 21.715 11.587C22.114 11.979 22.3135 12.45 22.3135 13V15L23.7155 20.5C23.9364 21.1333 23.8389 21.7083 23.4228 22.225C23.0062 22.7417 22.4495 23 21.7527 23Z" fill="#3887EA"/>
</g>
</svg>
